<svg xmlns="http://www.w3.org/2000/svg" aria-hidden="true" style="position:absolute;width:0;height:0;overflow:hidden">
  <defs>
    <symbol id="icon-filter-arrow" viewBox="0 0 30 32">
      <path stroke-linecap="round" stroke-linejoin="round" stroke-width="1.882" d="m23.529 11.765-8.471 8.471-8.471-8.471"/>
    </symbol>
    <symbol id="icon-edit" viewBox="0 0 32 32">
      <path stroke-linecap="round" stroke-linejoin="round" stroke-width="1.333" d="M11.615 25.5H6.5v-5.125L17.096 9.758M11.615 25.5H25.5m-13.885 0 10.596-10.617m-5.115-5.125 2.192-2.197c1.413-1.415 3.703-1.415 5.115 0s1.413 3.71 0 5.125l-2.192 2.197m-5.115-5.125 5.115 5.125"/>
    </symbol>
    <symbol id="icon-arrow" viewBox="0 0 31 32">
      <path stroke-linecap="round" stroke-linejoin="round" stroke-width="1.28" d="M6.24 25.12 24.473 6.88m0 0h-9.82m9.82 0v9.82"/>
    </symbol>
    <symbol id="icon-save" viewBox="0 0 32 32">
      <path stroke-linecap="round" stroke-linejoin="round" stroke-width="1.333" d="M15.996 4.667c1.685 0 3.231.161 4.457.348 1.552.236 2.768 1.299 3.115 2.785.418 1.794.828 4.522.758 8.187-.078 4.044-.668 6.962-1.237 8.866-.154.515-.51.78-.913.848-.421.071-.941-.069-1.363-.49-.769-.766-1.65-1.593-2.462-2.232a9.094 9.094 0 0 0-1.184-.811c-.353-.196-.767-.374-1.171-.374-.397 0-.825.175-1.199.367-.399.205-.84.486-1.292.805-.905.639-1.907 1.466-2.789 2.233-.466.405-1.014.5-1.447.383-.417-.114-.769-.434-.878-.992-.372-1.917-.725-4.749-.725-8.59 0-3.831.395-6.534.788-8.273.326-1.442 1.502-2.468 3.014-2.702a29.972 29.972 0 0 1 4.527-.358z"/>
    </symbol>
    <symbol id="icon-burger" viewBox="0 0 34 32">
      <path stroke-linecap="round" stroke-width="1.422" d="M8 7.289h18.133M8 20.089h18.133M8 13.689h18.133"/>
    </symbol>
    <symbol id="icon-close" viewBox="0 0 34 32">
      <path stroke-linecap="round" stroke-linejoin="round" stroke-width="1.422" d="m7.467 4.622 9.6 9.6m0 0-9.6 9.6m9.6-9.6 9.6 9.6m-9.6-9.6 9.6-9.6"/>
    </symbol>
    <symbol id="icon-exit" viewBox="0 0 32 32">
      <path stroke-linejoin="round" stroke-linecap="round" stroke-miterlimit="4" stroke-width="1.28" d="M13.194 6.88h-3.508c-1.55 0-2.806 1.256-2.806 2.806v12.628c0 1.55 1.256 2.806 2.806 2.806h3.508M11.68 16h14.031M25.711 16l-4.209 4.209M25.711 16l-4.209-4.209"></path>
    </symbol>
    <symbol id="icon-open-eye" viewBox="0 0 32 32">
      <path stroke-linejoin="miter" stroke-linecap="round" stroke-miterlimit="4" stroke-width="1.3333" d="M15.654 11.909c-4.779 0-8.654 4.621-8.654 5.795s3.874 5.795 8.654 5.795c4.779 0 8.654-4.621 8.654-5.795s-3.875-5.795-8.654-5.795zM15.654 11.909c-2.103 0-3.808 1.679-3.808 3.75s1.705 3.75 3.808 3.75c2.103 0 3.808-1.679 3.808-3.75s-1.705-3.75-3.808-3.75zM25 11.909c-2.636-2.166-5.713-3.409-9-3.409s-6.364 1.243-9 3.409"></path>
    </symbol>
    <symbol id="icon-close-eye" viewBox="0 0 31 32">
      <path stroke-linejoin="miter" stroke-linecap="round" stroke-miterlimit="4" stroke-width="1.28" d="M18.446 22.384c-1.042 0.484-2.2 0.799-3.418 0.799-4.588 0-8.308-4.469-8.308-5.604 0-0.644 1.195-2.358 3.066-3.723M22.339 19.375c0.636-0.765 0.997-1.442 0.997-1.796 0-1.135-3.719-5.604-8.308-5.604 2.019 0 3.655 1.623 3.655 3.626M15.028 19.227c-2.019 0-3.655-1.623-3.655-3.626M24 11.975c-2.53-2.094-5.484-3.296-8.64-3.296-1.137 0-2.248 0.156-3.323 0.454M6.72 11.975c0.235-0.194 0.473-0.381 0.714-0.559M6.72 7.36l16.046 16.2"></path>
    </symbol>
    <symbol id="icon-check" viewBox="0 0 48 32">
      <path stroke-linejoin="round" stroke-linecap="round" stroke-miterlimit="4" stroke-width="6" d="M6 13.882l13.333 14.118 22.667-24"></path>
    </symbol>
  </defs>
</svg>
